<svg id="Capa_1" data-name="Capa 1" xmlns="http://www.w3.org/2000/svg" xmlns:xlink="http://www.w3.org/1999/xlink" viewBox="0 0 282.12 307.73"><defs><style>.cls-1{fill:none;}.cls-2{clip-path:url(#clip-path);}.cls-3{fill:#222220;}</style><clipPath id="clip-path" transform="translate(-61.46 -50.78)"><rect class="cls-1" width="405.04" height="409.02"/></clipPath></defs><title>ordino_reserva_biosfera_logo</title><g class="cls-2"><path class="cls-3" d="M61.46,297.18A22.35,22.35,0,0,1,75.75,276a27.5,27.5,0,0,1,19.36,0,22.86,22.86,0,0,1,7.63,4.86,22.39,22.39,0,0,1,5,7.28,23.52,23.52,0,0,1,0,18,22.28,22.28,0,0,1-5,7.28,22.7,22.7,0,0,1-7.63,4.86,27.5,27.5,0,0,1-19.36,0,22.43,22.43,0,0,1-14.29-21.14m11.79,0a11.61,11.61,0,0,0,1,4.78,12,12,0,0,0,6.53,6.3,12.8,12.8,0,0,0,9.38,0,12.36,12.36,0,0,0,3.91-2.51A11.83,11.83,0,0,0,96.72,302a12.12,12.12,0,0,0,0-9.55,11.77,11.77,0,0,0-2.67-3.8,12.61,12.61,0,0,0-13.29-2.5,11.95,11.95,0,0,0-6.53,6.3,11.56,11.56,0,0,0-1,4.77" transform="translate(-61.46 -50.78)"/><path class="cls-3" d="M157,318.87H143l-10.76-16.68v16.68H120.94V275.49h17.55a17.23,17.23,0,0,1,6.33,1.07,11.85,11.85,0,0,1,7.1,7.16,14.72,14.72,0,0,1,.89,5.18,12.71,12.71,0,0,1-2.38,8,12.06,12.06,0,0,1-7.05,4.17Zm-24.79-24h2.13a8.23,8.23,0,0,0,5.12-1.38,5.32,5.32,0,0,0,0-7.94,8.23,8.23,0,0,0-5.12-1.38h-2.13Z" transform="translate(-61.46 -50.78)"/><path class="cls-3" d="M166.05,275.49h16.68a19.67,19.67,0,0,1,8.31,1.79,22.6,22.6,0,0,1,6.79,4.74,22,22,0,0,1,4.57,6.9,21.29,21.29,0,0,1,0,16.46,21.92,21.92,0,0,1-4.54,6.93,22.34,22.34,0,0,1-6.79,4.77,19.81,19.81,0,0,1-8.37,1.79H166.05Zm11.27,33.83h2.59a14,14,0,0,0,5.23-.92,11.2,11.2,0,0,0,3.89-2.53,10.85,10.85,0,0,0,2.41-3.83,13.59,13.59,0,0,0,.84-4.86,13.24,13.24,0,0,0-.87-4.83,11,11,0,0,0-2.44-3.86,11.4,11.4,0,0,0-3.88-2.53,13.94,13.94,0,0,0-5.18-.92h-2.59Z" transform="translate(-61.46 -50.78)"/><rect class="cls-3" x="154.12" y="224.71" width="11.27" height="43.38"/><polygon class="cls-3" points="178.8 268.09 178.8 224.71 190.07 224.71 210.9 251.23 210.9 224.71 222.12 224.71 222.12 268.09 210.9 268.09 190.07 241.57 190.07 268.09 178.8 268.09"/><path class="cls-3" d="M295.54,297.18a22.8,22.8,0,0,1,1.78-9A22.24,22.24,0,0,1,309.84,276a27.47,27.47,0,0,1,19.35,0,22.86,22.86,0,0,1,7.63,4.86,22.08,22.08,0,0,1,5,7.28,23.52,23.52,0,0,1,0,18,22,22,0,0,1-5,7.28,22.7,22.7,0,0,1-7.63,4.86,27.47,27.47,0,0,1-19.35,0,22.24,22.24,0,0,1-12.52-12.14,22.8,22.8,0,0,1-1.78-9m11.79,0a11.61,11.61,0,0,0,1,4.78,12.1,12.1,0,0,0,2.65,3.79,11.9,11.9,0,0,0,3.88,2.51,12.8,12.8,0,0,0,9.38,0,12.36,12.36,0,0,0,3.91-2.51A11.83,11.83,0,0,0,330.8,302a12.12,12.12,0,0,0,0-9.55,11.77,11.77,0,0,0-2.67-3.8,12.61,12.61,0,0,0-13.29-2.5,11.87,11.87,0,0,0-3.88,2.5,12,12,0,0,0-2.65,3.8,11.56,11.56,0,0,0-1,4.77" transform="translate(-61.46 -50.78)"/><path class="cls-3" d="M299.1,114.8V61.29a10.52,10.52,0,0,0-10.52-10.51h-52c32.65,9.56,53.81,33.26,62.51,64" transform="translate(-61.46 -50.78)"/><path class="cls-3" d="M168.44,50.78H116.12A10.18,10.18,0,0,0,105.94,61V114.8c8.7-30.76,29.85-54.46,62.5-64" transform="translate(-61.46 -50.78)"/><path class="cls-3" d="M105.94,185.1v51.71a10.32,10.32,0,0,0,10.33,10.33h50c-33.82-9.54-52.5-33-60.36-62" transform="translate(-61.46 -50.78)"/><path class="cls-3" d="M299.1,185.1c-7.87,29-26.55,52.5-60.36,62h49.69a10.67,10.67,0,0,0,10.67-10.67Z" transform="translate(-61.46 -50.78)"/><path class="cls-3" d="M203,117.68c27.35,0,34.09-34.09,34.09-34.09l0,0S203,90.29,203,117.64Z" transform="translate(-61.46 -50.78)"/><path class="cls-3" d="M203,117.68c0-27.36-34.09-34.09-34.09-34.09l0,0S175.64,117.7,203,117.7Z" transform="translate(-61.46 -50.78)"/><path class="cls-3" d="M231.17,133.81c8.46,26,43,21.88,43,21.88l0,0s-16.95-30.34-43-21.89Z" transform="translate(-61.46 -50.78)"/><path class="cls-3" d="M231.2,133.86c26-8.45,21.89-43,21.89-43l0,0s-30.34,16.94-21.89,42.95Z" transform="translate(-61.46 -50.78)"/><path class="cls-3" d="M217.1,166.73c-22.13,16.08-7.54,47.62-7.54,47.62l0,0s23.62-25.5,7.55-47.62Z" transform="translate(-61.46 -50.78)"/><path class="cls-3" d="M217.06,166.77c16.07,22.13,47.62,7.54,47.62,7.54l0,0s-25.49-23.62-47.62-7.54Z" transform="translate(-61.46 -50.78)"/><path class="cls-3" d="M183.94,166.73c-22.13-16.08-47.62,7.54-47.62,7.54v0s31.54,14.58,47.62-7.55Z" transform="translate(-61.46 -50.78)"/><path class="cls-3" d="M183.89,166.7c-16.08,22.13,7.54,47.62,7.54,47.62h0s14.59-31.54-7.54-47.61Z" transform="translate(-61.46 -50.78)"/><path class="cls-3" d="M173.81,134c8.46-26-21.89-43-21.89-43h0s-4.13,34.51,21.88,43Z" transform="translate(-61.46 -50.78)"/><path class="cls-3" d="M173.83,133.9c-26-8.45-43,21.89-43,21.89v.05s34.51,4.13,43-21.89Z" transform="translate(-61.46 -50.78)"/><path class="cls-3" d="M203,117.68c27.35,0,34.09-34.09,34.09-34.09l0,0S203,90.29,203,117.64Z" transform="translate(-61.46 -50.78)"/><path class="cls-3" d="M203,117.68c0-27.36-34.09-34.09-34.09-34.09l0,0S175.64,117.7,203,117.7Z" transform="translate(-61.46 -50.78)"/><path class="cls-3" d="M147,132.82a6.25,6.25,0,1,1,6.24-6.24,6.25,6.25,0,0,1-6.24,6.24m0-8.34a2.1,2.1,0,1,0,2.1,2.1,2.1,2.1,0,0,0-2.1-2.1" transform="translate(-61.46 -50.78)"/><path class="cls-3" d="M256.84,132.82a6.25,6.25,0,1,1,6.25-6.24,6.25,6.25,0,0,1-6.25,6.24m0-8.34a2.1,2.1,0,1,0,2.1,2.1,2.1,2.1,0,0,0-2.1-2.1" transform="translate(-61.46 -50.78)"/><path class="cls-3" d="M203,97.11a6.25,6.25,0,1,1,6.24-6.24A6.25,6.25,0,0,1,203,97.11m0-8.34a2.1,2.1,0,1,0,2.1,2.1,2.1,2.1,0,0,0-2.1-2.1" transform="translate(-61.46 -50.78)"/><path class="cls-3" d="M163.47,194.69a6.25,6.25,0,1,1,6.24-6.24,6.25,6.25,0,0,1-6.24,6.24m0-8.34a2.1,2.1,0,1,0,2.1,2.1,2.1,2.1,0,0,0-2.1-2.1" transform="translate(-61.46 -50.78)"/><path class="cls-3" d="M232.9,195.88a6.25,6.25,0,1,1,6.24-6.25,6.26,6.26,0,0,1-6.24,6.25m0-8.35a2.1,2.1,0,1,0,2.1,2.1,2.1,2.1,0,0,0-2.1-2.1" transform="translate(-61.46 -50.78)"/><path class="cls-3" d="M67,334.73h6c4.15,0,6.86,1.78,6.86,6.06,0,3-2.31,5-5.19,5.4v.06c1.88.24,2.28,1.24,3,2.82l4,9H79.12l-3.38-7.9c-1.34-3-2.35-3.12-4.56-3.12H69.27v11H67Zm2.31,10.35h2.45c2.71,0,5.82-1,5.82-4.29,0-3.81-2.71-4.05-5.89-4.05H69.27Z" transform="translate(-61.46 -50.78)"/><path class="cls-3" d="M96.74,357.57a13.82,13.82,0,0,1-5,.94c-5.66,0-7.77-3.82-7.77-8.94s2.88-8.94,7.2-8.94c4.83,0,6.8,3.88,6.8,8.47v1.07H86.32c0,3.62,2,6.53,5.63,6.53a11,11,0,0,0,4.79-1.27Zm-1-9.21c0-3-1.2-5.93-4.35-5.93s-5,3.12-5,5.93Z" transform="translate(-61.46 -50.78)"/><path class="cls-3" d="M100.73,355.63a10,10,0,0,0,4.45,1.07c2,0,3.79-1.1,3.79-3,0-4.06-8.21-3.42-8.21-8.38,0-3.38,2.75-4.65,5.56-4.65a13.38,13.38,0,0,1,4.22.77l-.2,1.84a10,10,0,0,0-3.78-.8c-2.18,0-3.69.67-3.69,2.84,0,3.18,8.41,2.78,8.41,8.38,0,3.61-3.38,4.85-6,4.85a12.9,12.9,0,0,1-4.79-.8Z" transform="translate(-61.46 -50.78)"/><path class="cls-3" d="M126.52,357.57a13.82,13.82,0,0,1-5,.94c-5.66,0-7.77-3.82-7.77-8.94s2.88-8.94,7.2-8.94c4.83,0,6.8,3.88,6.8,8.47v1.07H116.1c0,3.62,2,6.53,5.63,6.53a10.92,10.92,0,0,0,4.79-1.27Zm-1-9.21c0-3-1.2-5.93-4.35-5.93s-5,3.12-5,5.93Z" transform="translate(-61.46 -50.78)"/><path class="cls-3" d="M131.82,344.85a29.39,29.39,0,0,0-.14-3.82h2.11v3.28h.07c.77-1.91,2.21-3.68,4.39-3.68a6.29,6.29,0,0,1,1.47.2V343a5.27,5.27,0,0,0-1.54-.2c-3.35,0-4.25,3.75-4.25,6.83v8.44h-2.11Z" transform="translate(-61.46 -50.78)"/><polygon class="cls-3" points="87.44 307.33 84.96 307.33 79.17 290.25 81.48 290.25 86.2 305.02 86.27 305.02 91.23 290.25 93.44 290.25 87.44 307.33"/><path class="cls-3" d="M167.66,355.36h-.07a6,6,0,0,1-5.42,3.15c-4.86,0-5.63-3.28-5.63-4.82,0-5.73,6.09-6,10.52-6h.4v-.87c0-2.91-1-4.38-3.89-4.38a9.09,9.09,0,0,0-5,1.4v-2a13.32,13.32,0,0,1,5-1.17c4.22,0,6,1.91,6,6.36v7.54a25.35,25.35,0,0,0,.16,3.58h-2.07Zm-.2-5.86h-.61c-3.65,0-8,.37-8,4.12,0,2.25,1.61,3.08,3.55,3.08,5,0,5.06-4.32,5.06-6.16Z" transform="translate(-61.46 -50.78)"/><path class="cls-3" d="M197.44,358.11h-2.11V355.4h-.07a5.48,5.48,0,0,1-5.32,3.11c-4.69,0-7-3.88-7-8.94s2-8.94,7-8.94a5.74,5.74,0,0,1,5.32,3.28h.07V333h2.11Zm-7.17-1.41c3.75,0,5.06-4,5.06-7.13s-1.31-7.14-5.06-7.14c-4,0-5.06,3.82-5.06,7.14s1,7.13,5.06,7.13" transform="translate(-61.46 -50.78)"/><path class="cls-3" d="M214,357.57a13.86,13.86,0,0,1-5,.94c-5.66,0-7.77-3.82-7.77-8.94s2.88-8.94,7.2-8.94c4.83,0,6.8,3.88,6.8,8.47v1.07H203.57c0,3.62,1.94,6.53,5.63,6.53a11,11,0,0,0,4.79-1.27Zm-1-9.21c0-3-1.21-5.93-4.35-5.93s-5,3.12-5,5.93Z" transform="translate(-61.46 -50.78)"/><path class="cls-3" d="M228.4,333h2.11v10.92h.06a5.77,5.77,0,0,1,5.33-3.28c5,0,7,3.75,7,8.94s-2.34,8.94-7,8.94a5.48,5.48,0,0,1-5.33-3.11h-.06v2.71H228.4Zm7.16,9.45c-3.85,0-5.05,4-5.05,7.13s1.3,7.13,5.05,7.13c4,0,5.06-3.81,5.06-7.13s-1-7.13-5.06-7.13" transform="translate(-61.46 -50.78)"/><path class="cls-3" d="M249.33,336.47h-2.11v-2.81h2.11ZM247.22,341h2.11v17.08h-2.11Z" transform="translate(-61.46 -50.78)"/><path class="cls-3" d="M261.33,340.63c5.52,0,8,4.28,8,8.94s-2.45,8.94-8,8.94-8-4.29-8-8.94,2.45-8.94,8-8.94m0,16.07c3.68,0,5.66-3.18,5.66-7.13s-2-7.14-5.66-7.14-5.67,3.19-5.67,7.14,2,7.13,5.67,7.13" transform="translate(-61.46 -50.78)"/><path class="cls-3" d="M272,355.63a10,10,0,0,0,4.45,1.07c2,0,3.79-1.1,3.79-3,0-4.06-8.21-3.42-8.21-8.38,0-3.38,2.75-4.65,5.56-4.65a13.38,13.38,0,0,1,4.22.77l-.2,1.84a10,10,0,0,0-3.78-.8c-2.18,0-3.69.67-3.69,2.84,0,3.18,8.41,2.78,8.41,8.38,0,3.61-3.38,4.85-6,4.85a12.93,12.93,0,0,1-4.79-.8Z" transform="translate(-61.46 -50.78)"/><path class="cls-3" d="M287.76,342.84h-3.45V341h3.45v-1.24c0-3.58.13-7.2,4.52-7.2a4.92,4.92,0,0,1,2,.33l-.13,1.85a3.64,3.64,0,0,0-1.67-.37c-2.88,0-2.58,3.11-2.58,5.16V341h3.85v1.81h-3.85v15.27h-2.11Z" transform="translate(-61.46 -50.78)"/><path class="cls-3" d="M308.93,357.57a13.9,13.9,0,0,1-5,.94c-5.66,0-7.77-3.82-7.77-8.94s2.88-8.94,7.2-8.94c4.82,0,6.8,3.88,6.8,8.47v1.07H298.51c0,3.62,1.94,6.53,5.63,6.53a11,11,0,0,0,4.79-1.27Zm-1-9.21c0-3-1.21-5.93-4.36-5.93s-5,3.12-5,5.93Z" transform="translate(-61.46 -50.78)"/><path class="cls-3" d="M314.22,344.85a31.63,31.63,0,0,0-.13-3.82h2.11v3.28h.07c.76-1.91,2.21-3.68,4.38-3.68a6.31,6.31,0,0,1,1.48.2V343a5.37,5.37,0,0,0-1.54-.2c-3.35,0-4.26,3.75-4.26,6.83v8.44h-2.11Z" transform="translate(-61.46 -50.78)"/><path class="cls-3" d="M335.19,355.36h-.07a6,6,0,0,1-5.42,3.15c-4.86,0-5.63-3.28-5.63-4.82,0-5.73,6.1-6,10.52-6h.4v-.87c0-2.91-1-4.38-3.89-4.38a9.11,9.11,0,0,0-5,1.4v-2a13.41,13.41,0,0,1,5-1.17c4.23,0,6,1.91,6,6.36v7.54a23.88,23.88,0,0,0,.17,3.58h-2.08Zm-.2-5.86h-.6c-3.65,0-8,.37-8,4.12,0,2.25,1.61,3.08,3.55,3.08,5,0,5.06-4.32,5.06-6.16Z" transform="translate(-61.46 -50.78)"/></g></svg>